<svg version="1.1" id="Layer_1" xmlns="http://www.w3.org/2000/svg" xmlns:xlink="http://www.w3.org/1999/xlink" x="0px" y="0px"
	 width="100%" viewBox="0 0 640 640" enable-background="new 0 0 640 640" xml:space="preserve">
<path fill="#000000" opacity="1.000000" stroke="none" 
	d="
M343.449860,564.338501 
	C362.325348,562.497498 380.524445,559.637451 398.222717,554.002197 
	C410.300446,550.156616 422.193237,545.866211 433.578583,540.275452 
	C436.446228,538.867310 438.765900,539.023804 441.384369,540.987610 
	C453.112854,549.783997 464.993958,558.376770 476.739929,567.150085 
	C480.533691,569.983704 480.419220,571.177551 476.223083,573.571838 
	C441.296753,593.500671 404.146332,606.938416 364.167267,612.403564 
	C308.758606,619.977844 255.904266,610.725342 205.705307,587.131409 
	C134.413223,553.623535 84.504654,499.798157 56.617504,425.899536 
	C42.715469,389.060303 37.081501,350.753571 39.210995,311.652527 
	C42.124439,258.156860 58.177628,208.694321 89.420593,164.748596 
	C125.383194,114.164322 172.192093,77.502419 230.850723,56.584885 
	C260.333130,46.071533 290.645233,39.801456 322.148071,39.514545 
	C396.145416,38.840630 460.861511,63.424442 516.954956,111.045723 
	C552.615417,141.320206 579.568604,178.152786 596.741272,221.856522 
	C608.079224,250.711136 614.825562,280.566345 616.410645,311.605469 
	C619.260803,367.418671 607.031189,419.781921 580.069641,468.551910 
	C568.702087,489.114410 553.528076,506.594055 531.534546,516.680359 
	C509.235138,526.906921 487.377136,524.248413 467.119690,511.716125 
	C445.600281,498.403107 424.960083,483.672821 403.872284,469.657196 
	C381.952484,455.088654 360.582275,439.696930 338.227203,425.782013 
	C326.232056,418.315643 317.430634,408.496063 315.569885,393.964172 
	C313.573334,378.371613 318.791260,365.537079 332.259918,357.107788 
	C345.592560,348.763550 359.345642,349.501923 372.188568,358.376495 
	C391.649078,371.823914 410.796356,385.724243 430.099548,399.399933 
	C447.635803,411.823700 465.134064,424.302826 482.773560,436.578705 
	C503.569611,451.051331 526.811584,446.860199 541.180359,425.960358 
	C552.459595,409.554352 557.655457,390.745056 561.120972,371.490967 
	C566.685059,340.576935 567.303040,309.436981 561.001099,278.645691 
	C550.963684,229.602997 527.742249,187.626572 490.834961,153.457565 
	C453.789337,119.160492 410.262329,97.996086 360.338104,91.343269 
	C301.741547,83.534790 246.858032,95.311111 197.253799,127.843971 
	C141.691391,164.284515 107.155197,215.794632 94.857460,280.878296 
	C82.053589,348.640564 95.370125,411.763214 135.582382,468.281525 
	C161.480515,504.681366 196.442856,529.910217 237.487076,546.989319 
	C257.595093,555.356506 278.544922,560.622253 300.093597,563.334534 
	C314.319305,565.125122 328.667206,565.039917 343.449860,564.338501 
z"/>
<path fill="#000000" opacity="1.000000" stroke="none" 
	d="
M348.077698,131.647675 
	C374.517822,134.339828 399.101532,141.623322 422.032013,154.195175 
	C457.197235,173.474823 484.437744,200.783585 502.628510,236.479630 
	C518.787048,268.187653 526.634888,302.040314 524.175659,337.811676 
	C522.659851,359.859894 517.684204,381.190338 509.188293,401.660095 
	C507.760468,405.100250 506.155151,406.052063 502.913727,403.588959 
	C486.466736,391.091125 470.025421,378.582733 453.401459,366.323059 
	C448.702850,362.857910 447.928040,359.066498 449.064972,353.536133 
	C463.134277,285.098145 421.002777,219.268997 352.819641,204.158112 
	C317.970245,196.434723 285.480408,204.017929 256.620575,224.715851 
	C227.730881,245.435165 210.425888,274.232361 205.740784,309.252289 
	C198.934174,360.130005 220.286911,411.313721 269.491852,439.156799 
	C284.427704,447.608398 300.280823,453.352722 317.305145,455.768707 
	C319.818390,456.125397 322.108490,457.001007 324.055237,458.740692 
	C337.253021,470.534485 351.890137,480.452148 366.077576,490.957977 
	C373.709351,496.609375 381.258820,502.372345 388.817017,508.122284 
	C389.982544,509.008972 391.486755,509.911041 391.181427,511.656403 
	C390.864624,513.467590 389.028534,513.596069 387.663483,514.019775 
	C366.717621,520.521301 345.360168,524.749695 323.341705,524.027893 
	C272.835846,522.372314 228.647186,504.313171 191.837677,469.992676 
	C160.121323,440.420868 141.832428,403.132111 134.566681,360.388214 
	C127.204880,317.079132 133.088898,275.501190 153.355988,236.751633 
	C182.423584,181.175964 228.093399,146.777847 290.005371,134.571060 
	C309.083099,130.809616 328.262115,129.683273 348.077698,131.647675 
z"/>
</svg>